<svg xmlns="http://www.w3.org/2000/svg" viewBox="0 0 2499.28 678.99"><g id="Capa_2" data-name="Capa 2"><g id="Capa_1-2" data-name="Capa 1"><path d="M751.55,79.37c-8.68,58.29-26,199.67,11.16,339.81,7.45,18.6,26,13.64,33.49,5,2.48-3.72,27.29-27.29,27.29-27.29,8.68-12.4,17.36-8.68,23.56,0s23.56,36,49.61,37.21,67-29.77,83.09-42.17c11.16,21.09,24.8,40.93,47.13,39.68s43.4-17.36,62-37.2c13.64,16.12,28.52,33.48,45.88,32.24s49.61-19.84,80.62-48.37c12.4-13.64,26-7.43,34.72,6.21s21.08,36,37.21,36,39.68-22.33,47.12-28.53,14.88-11.15,23.56-1.23L1376.61,408c11.16,11.16,34.72,8.68,52.08-7.44s21.08-21.08,28.52-21.08,11.17,9.92,18.61,17.36,64.49,57,140.14-19.85c1.24,38.45-7.44,254.23-7.44,285.25,0,14.87,17.36,19.84,42.17,14.87s37.2-12.4,36-48.36-6.2-213.31-6.2-213.31c3.72-28.52,28.52-75.65,54.56-76.89s13.64,31,1.25,31-26,6.2-26,17.36,3.73,43.41,76.9,43.41,81.84-23.57,101.69-32.25c12.4,23.56,49.61,60.78,152.54-5,21.08,24.8,60.77,55.81,104.18,24.8,13.64-11.16,27.28-37.2,22.32-59.53-3.72-8.68-1.24-12.4,5-12.4h40.93c8.68,0,23.56,6.21,28.52,31s22.32,45.89,36,44.64,39.68-22.32,54.57-37.2c12.41,17.36,65.73,98,163.71-37.21,8.68-12.4-5-18.6-12.41-9.92s-29.76,22.33-48.37,23.56-40.92-17.36-58.28-40.92-37.21-14.89-49.61,3.72c-8.68,9.92-13.64,19.84-23.57,31-6.2-11.16-13.63-34.72-26-43.4s-22.32-9.92-52.09-2.48-63.24,11.16-96.73,12.4c-18.6-1.24-13.64,7.44-12.4,14.88s14.88,38.44-9.92,39.69-22.33-36-5-55.81c8.68-8.68-3.73-27.29-17.37-19.84s-22.32,11.16-33.48,28.52-34.73,43.41-73.17,44.64-27.29-43.4-26-63.24c0-11.17-7.44-21.09-27.28-16.12s-45.89,2.48-43.4,57c-13.64,19.84-44.65,32.24-69.46,28.53-7.44-1.25-9.92-5-7.44-13.64s8.68-57-28.52-69.46-65.73,5-84.33,21.08c-9.92,5-12.41,0-12.41-8.68l1.24-45.88c0-21.08-42.16-26-48.36-1.24s-13.64,73.17-50.85,90.53-49.61-5-69.45-29.77-39.68-23.56-62-1.24l-22.33,21.09c-8.68,7.44-13.64,5-21.07-6.21s-12.41-26-26-27.28-16.12,3.72-26,11.16l-28.53,22.33c-11.15,8.67-13.64,8.67-24.79-6.21,0,0-18.61-31-37.21-31s-24.8,11.16-36,19.84c0,0-28.53,19.85-38.45,28.53s-38.45,26-65.73-14.89c-9.92-14.88-27.28-26-39.68-5s-32.24,53.33-47.13,43.41,9.92-38.45,28.52-40.93,7.45-26.05-11.16-27.28-48.36,11.16-62,27.28-36,34.72-58.28,33.49-27.29-18.61-38.45-42.17-31-21.08-45.89-8.68-18.6,16.12-29.76,29.76-11.16,6.2-12.4-2.47-8.68-168.67,3.72-271.6c4.95-26-48.38-34.71-59.54,5Z" fill="#ffffff"/><path d="M1924.76,270.5a38.59,38.59,0,1,0-38.58-38.58A38.58,38.58,0,0,0,1924.76,270.5ZM689.54,310.05c-5,3.72-145.1,50.84-222,55.81V78.13c44.65,1.24,129,19.85,182.31,39.69,12.4,6.2,38.44-1.24,11.16-28.53C597.77,38.45,498.55,0,367.09,0S0,73.17,0,222,188.51,445.22,368.33,445.22c126.5,0,244.32-45.88,329.89-127.73C711.87,303.85,694.5,306.33,689.54,310.05Zm-425.4,55.59c-107-22.05-182.93-77.5-182.93-142.41S157.15,102.92,264.14,80.86V365.64Zm2177.08-92.85c-10,0-18.11,7.87-18.11,17.47a18.07,18.07,0,0,0,36.14,0C2459.25,280.66,2451.18,272.79,2441.22,272.79Zm0,31.71a14.33,14.33,0,0,1-14.68-14.24c0-7.76,6.52-14,14.68-14a14.14,14.14,0,1,1,0,28.27Z" fill="#ffffff"/><path d="M2450.49,285.68a4.84,4.84,0,0,0-2.24-4.23,10,10,0,0,0-4.93-.95h-8.81v19.67h3v-9.06H2441l5.77,9.06h3.44l-6.13-9.06c3.59-.1,6.38-1.54,6.38-5.43Zm-9.71,3h-3.29v-5.92h5.23c2.54,0,4.78.35,4.78,2.88,0,3.54-3.88,3-6.72,3Z" fill="#ffffff"/></g></g></svg>