<svg xmlns="http://www.w3.org/2000/svg" width="66.345" height="45" viewBox="0 0 66.345 45"><defs><style>.a{fill:#fff;}</style></defs><path class="a" d="M284.576,16.17,270,32.341h12.5l14.576-16.17L282.5,0H270Z" transform="translate(-245.051)"/><path class="a" d="M20.534,81.689l-6.581-2.172,4.126,5.723-4.058,5.689,6.513-2.172L24.49,94.48V87.412l6.65-2.172-6.65-2.207V76ZM4.136,108.1a1.979,1.979,0,0,1,1.521.749l.139.17,1.78-1.228-.159-.2a4.168,4.168,0,0,0-3.281-1.557,3.977,3.977,0,1,0,0,7.947A4.178,4.178,0,0,0,7.4,112.45l.159-.2-1.78-1.228-.139.17a1.938,1.938,0,0,1-3.46-1.178A1.977,1.977,0,0,1,4.137,108.1Zm19.115,2.35-3.2-4.231H18.018V113.7h1.975v-4.191l2.982,4.191h2.251v-7.485H23.251Zm7.633,1.1c0,.06-.08.07-.119.07a.125.125,0,0,1-.119-.08l-1.652-5.319H26.7l2.439,7.485H32.4l2.438-7.485H32.547Zm18.483-.908a2.329,2.329,0,0,0,1.187-2.215,2.436,2.436,0,0,0-2.474-2.205h-3.82V113.7h1.995v-2.694h.9a.253.253,0,0,1,.229.09l1.287,2.6h2.244Zm-1.392-1.556H46.2v-.832h1.774a.417.417,0,1,1,0,.832Zm12.456,4.62h5.914v-2H62.4v-.9h3.548v-1.8H62.4v-.8h3.943v-2H60.431Zm-4.557-4.64c-1.06-.238-1.368-.4-1.368-.745v-.02c0-.278.208-.5.723-.5a3.658,3.658,0,0,1,1.982.666l1.189-1.411a4.787,4.787,0,0,0-3.132-1.023c-1.843,0-2.943,1.033-2.943,2.463v.02c0,1.579,1.3,2.046,2.933,2.414,1.04.238,1.328.417,1.328.735v.02c0,.328-.367.527-.941.527a4,4,0,0,1-2.517-.924l-1.2,1.421a5.547,5.547,0,0,0,3.667,1.271c1.863,0,3.171-.934,3.171-2.5v-.02C58.768,110.014,57.638,109.448,55.874,109.06Zm-43.446-3.03A3.974,3.974,0,1,0,16.448,110,4,4,0,0,0,12.428,106.031Zm0,5.914a1.894,1.894,0,1,1,1.894-1.894A1.893,1.893,0,0,1,12.428,111.945ZM36.314,113.7h5.914v-2H38.285v-.9h3.548v-1.8H38.285v-.8h3.943v-2H36.314Z" transform="translate(0 -68.977)"/></svg>