<svg xmlns="http://www.w3.org/2000/svg" xmlns:xlink="http://www.w3.org/1999/xlink" width="71" height="33" viewBox="0 0 71 33">
  <defs>
    <clipPath id="clip-Fila_">
      <rect width="71" height="33"/>
    </clipPath>
  </defs>
  <g id="Fila_" data-name="Fila " clip-path="url(#clip-Fila_)">
    <g id="Grupo_3725" data-name="Grupo 3725" transform="translate(4 6.465)">
      <g id="Grupo_3726" data-name="Grupo 3726" transform="translate(0 0)">
        <path id="Trazado_7057" data-name="Trazado 7057" d="M340.949,272.7H354.17a2.758,2.758,0,0,1,2.8,2.754v.2a2.8,2.8,0,0,1-2.8,2.8H340.949a2.843,2.843,0,0,1-2.854-2.8v-.2a2.8,2.8,0,0,1,2.854-2.754Z" transform="translate(-338.095 -272.249)" fill="#f9f9f9" fill-rule="evenodd"/>
        <path id="Trazado_7058" data-name="Trazado 7058" d="M338.1,294.529a2.8,2.8,0,0,1,2.955-2.6h11.718a2.8,2.8,0,0,1,2.8,2.8v.151a2.8,2.8,0,0,1-2.8,2.8h-7.962a.77.77,0,0,0-.751.751v3.906a2.8,2.8,0,0,1-2.8,2.8H340.9a2.8,2.8,0,0,1-2.8-2.8v-7.812Z" transform="translate(-338.095 -283.962)" fill="#f9f9f9" fill-rule="evenodd"/>
        <path id="Trazado_7059" data-name="Trazado 7059" d="M390.95,289.924,390.9,274.4a2.811,2.811,0,0,1,2.8-2.855h.3a2.843,2.843,0,0,1,2.8,2.855l.05,15.524a2.8,2.8,0,0,1-2.8,2.8h-.35a2.758,2.758,0,0,1-2.754-2.8Z" transform="translate(-370.268 -271.546)" fill="#f9f9f9" fill-rule="evenodd"/>
        <path id="Trazado_7060" data-name="Trazado 7060" d="M439.411,273.478l6.26,10.216c1.4,2.2,1.7,2.754,1.7,4.407a4.674,4.674,0,0,1-4.407,4.507H434.5a2.636,2.636,0,0,1-2.8-2.6v-.15a2.8,2.8,0,0,1,2.8-2.8h5.208c.3,0,.5-.05.6-.25.1-.25.05-.35-.1-.6l-3.706-5.959c-.05-.1-.1-.25-.2-.25-.15,0-.2.15-.25.25l-5.659,9.715c-.9,1.553-1.953,2.654-3.455,2.654H416.076a4.384,4.384,0,0,1-4.156-4.106V274.479a2.8,2.8,0,0,1,2.8-2.8h.35a2.8,2.8,0,0,1,2.8,2.8v11.468a.737.737,0,0,0,.751.751h5.408a2.072,2.072,0,0,0,2-1.2l7.261-12.019a3.507,3.507,0,0,1,3.1-1.753,3.363,3.363,0,0,1,3,1.753Z" transform="translate(-383.074 -271.625)" fill="#f9f9f9" fill-rule="evenodd"/>
        <path id="Trazado_7061" data-name="Trazado 7061" d="M340.949,272.7H354.17a2.758,2.758,0,0,1,2.8,2.754v.2a2.8,2.8,0,0,1-2.8,2.8H340.949a2.843,2.843,0,0,1-2.854-2.8v-.2a2.8,2.8,0,0,1,2.854-2.754Z" transform="translate(-338.095 -272.249)" fill="#f9f9f9" fill-rule="evenodd"/>
      </g>
    </g>
  </g>
</svg>
