<svg xmlns="http://www.w3.org/2000/svg" version="1.2" viewBox="0 0 4783 1220" width="4783" height="1220"><style>.s0{fill:#ffffff}</style><path fill-rule="evenodd" class="s0" d="m4149.1 292.3c-1.3-14-4.5-28.7-7.6-42.7c-2-10.2-4.5-21.1-5.8-31.9l5.8 0.6l107.2 1.3c0 194.1 16 390.8-24.9 587.4l-82.3-127l-111.2-174.4c44.7-30 91.3-71.5 111.2-125.1c10.1-26.2 13.3-55.4 7.6-87.9m543.3-83.7l0.6 42.1l-42.2-3.8l-12.2-1.3l-12.1-0.6l-10.8-1.3h-10.9l-12.1-0.6h-12.1l-10.9-0.6l-11.4 0.6h-23l-10.9 0.6l-11.4 0.7l-11.3 0.6l2.3 418.9l11.5 151.3l2.6 40.2h-561.9l-11.5-18.5l-99.6-166.1l4.4 145.7l0.7 38.9h-321.8l3.8-41.5l2.5-23.6l2.6-22.3l2-23.7l2.5-23.6l1.7-19.7l-2.9 4.4l-13.4 17.2l-15.3 17.3l-16.6 16.5l-16.6 14.1l-17.9 14.1l-18.5 13.3l-19.8 12.2l-19.8 11.5l-22.4 10.9l-21 8.8l-21.7 8.4l-22.4 8.3l-22.3 6.4l-23 7l-24.2 5.8l-12.8 1.9l-11.5 1.8l-12.8 1.9l-14.1 0.7h-23l-12.1-0.7l-12.1-0.6l-11.5-1.3l-10.9-1.8l-10.2-1.3l-12.1-1.3l-10.8-2l-10.9-1.9l-10.2-1.9l-10.8-1.9l-24.3-5.1l-24.3-7l-23-8.3l-22.3-9l-22.4-11.5l-21-12.1l-20.4-14.1l-19.2-14.6l-19.2-15.4l-17.8-16.6l-17.3-17.8l-16-18.6l-14.7-19.1l-13.4-19.8l-13.4-20.5l-11.5-22.3l-5.1-10.9l-5.1-10.8l-5.1-12.1l-3.9-10.2l-3.8-9.6l-4.5-12.1l-3.2-12.8l-2.5-9.6l-3.2-11.5l-0.8-4.3l-16.4 10.1l-20.5 9.6l-19.8 7.6l-21.1 7l-21 5.7l-19.8 3.9l-20.4 3.1l-20.5 2l-19.8 1.3l-19.1 0.6l-17.4 0.6l0.1 3.9l1.3 14.7l1.3 15.3l1.9 15.3l1.9 17.2l1.9 16.6l2.6 17.3l1.9 17.2l1.9 16.6l2.5 18l2.6 17.9l2.5 17.2l2.6 17.9l2.6 17.8l6.4 41.6l-42.8 1.2l-115 2.5l-5.1 26.9l-7.6 30l-9.6 28.8l-12.1 28l-14 27.4l-16 26.2l-17.3 25.5l-20.4 23.7l-21.1 22.3l-23.6 21.1l-24.3 19.1l-26.8 17.9l-28.1 15.3l-29.3 14.1l-30.7 12.1h-1.2l-1.3 0.6l-10.9 2.6l-9.5 1.9l-9.6 2.5l-9.6 2l-10.2 3.2l-10.9 1.9l-9.5 1.9l-10.3 1.9l-10.2 1.9l-10.8 1.3l-9.6 1.2l-9 1.4l-10.2 1.9l-12.1 0.6l-8.3 0.6l-9.6 0.6h-18.5l-19.2-0.6l-18.5-1.9l-19.8-3.2l-19.8-3.8l-19.8-4.5l-19.8-5.8l-19.8-5.7l-19.8-6.4l-19.8-7l-19.1-7.6l-18.5-7.7l-19.8-8.3l-18.5-9l-17.9-8.3l-17.9-8.3l-20.4-10.9v-269.7l-161.6 2.8h-17.2l-11.5-12.8l-255.4-284.8v297.6h-355.6l-9.4-23.7l-0.2 0.1l-67.9-171.7h-169.8l-64.3 171.2l-8.9 24.2h-17.8l-2 14.1l-11.5 44l-13.5 42.2l-18.5 38.3l-21 35.7l-24.3 32.6l-26.8 28l-29.4 25.5l-31.3 22.3l-33.2 18.6l-34.5 15.3l-35.8 12.1l-37.7 8.3l-37 5.1l-37.7 1.9l-38.3-0.6l-35.1-2.5v-196l32.6-3.9l11.5-1.2h10.2l9.6-0.7l10.8-0.6l9.6-0.6l10.2-1.9l8.3-2.6l8.4-3.8l7-5.2l8.3-7l7-9l6.3-12.1l6.4-17.2l5.1-21l3.2-26.9l1.3-32.5v-133.5l-0.7-19.8v-60.6l-0.6-21.1v-21.7l-0.6-21.7v-22.4l-0.7-23l-0.6-23l-0.7-24.3l-0.6-24.2l-0.6-25.6l-0.6-25.5l-1.3-26.2l-0.6-27.4l-1.3-28.1l-1.3-29.4l-1.3-30l-1.2-30.6l-1.3-32l-2-33.2l-1.2-33.8l-2-35.1l-1.9-36.4l-1.9-39.6h344.8l-0.6 38.3l-4.1 211.5l84.5-225.5l9-24.3h242.6l9.6 24.3l117.6 302.4l-0.8-289v-37.7h37.7l170.5 0.7h16.6l11.5 12.7l254.8 282.7v-296.1h240v64.3l4.5-4.3l16-12.1l16.5-10.9l17.3-8.9l16-8.3l17.8-8.3l19.2-7l17.2-5.8l18.2-5.7l19.8-5.1l17.9-4.5l17.2-3.8l3.2-0.6l-2.5 0.6h1.2l1.3-0.6l22.4-1.9l23.6-1.3h23l24.2 0.6l24.9 2l24.9 3.8l24.9 3.8l24.9 5.7l24.9 7.7l24.3 8.3l24.3 10.2l23 11.5l23 12.8l21.1 15.3l19.7 16.6l2.6 2.5v-77.2l38.3 0.5h44l15.4-0.6h15.3l14.7-0.6l16-0.6l16.6-0.7h15.3l15.3-0.6l16.6-0.6h49.1l16.6 0.6l15.3 0.6l17.2 0.7l16 1.2l16 1.3l16 1.9l16.6 2.5l16.6 3.3l15.3 2.5l16.6 4.5l16.6 5.1l14.6 4.5l15.4 5.8l15.3 6.3l15.3 7l14 8.3l15.4 9.6l14 9v0.6l13.4 11.6l10.9 12.7l10.2 13.4l9.6 16l6.5 10.7l20.3-19.5l22.3-18.6l22.4-16l23.6-16l25.5-14.1l25.6-12.8l25.5-10.8l26.8-10.2l28.1-8.4l28.1-7l28.1-4.5l27.5-4.4l28.7-2.6l28.8-0.6l28.7 0.6l27.4 2l28.1 3.8l28.1 4.5l28.1 7l26.8 8.3l26.8 10.2l25.5 11.4l25 13.5l24.2 14.7l23.6 16.6l21.7 18.5l21.1 19.8l19.8 21.7l17.9 23.7l1.4 2.2l-0.8-9.9l-2.5-23l-2.6-23.6l-2.6-23l-3.2-23l-3.8-23.6l-7-43.4h59.4l15.3-0.7l16-0.6l15.9-0.6l14.7-0.7l15.2-1.3l16.6-1.3l16-0.6l15.3-1.3l16.6-1.3l16-0.6l16-1.3l17.8-0.6h16l16-0.6h16.6l16.6 0.6l15.3 0.7l17.9 0.6l16.5 1.9l16 2.5l17.3 2.6l16 3.2l16.6 3.8l17.2 5.1l16 5.1l15.9 5.8l17.3 7.6l2.4 1.3l-0.5-28.7h667.9l-3.2 40.9l-0.6 8.3l-0.7 8.9v9.5l-0.6 9v16l0.6 9.6v8.9l0.7 8.9v9.6l0.6 8.3l0.6 9.6v8.9l0.6 9l0.7 9.5h-0.2zm-2656.7 721.9l1.9-5.1l1.2-4.4l1.3-9l0.6-5.2v-6.3l-0.6-5.7l-0.6-7.7l-1.3-7.7l-2-7l-3.2-7.6l-2.5-8.3l-3.2-8.9l-3.8-7.7l-3.2-6.4l-3.9-7l-3.9-6.7l-8.9-9.9l-10.8-12.7l-12.1-12.1l-12.1-12.2l-12.8-11.5l-13.4-11.5l-12.8-10.8l-14.1-10.9l-14.7-10.8l-14.6-11.5l-13.4-10.2l-15.4-10.9l-14.6-10.8l-15.4-10.9l-15.3-11.5l-15.3-11.5l-15.3-10.8l-16-12.8l-14.7-12.1l-14-12.1l-14-12.8l-15.3-14.1l-13.5-14.6l-13.4-14.7l-13.4-15.3l-0.8-1.2l-0.5 293v37l-17 0.3l23.5 24.4l12.7 12.8l13.4 12.8l14.7 12.1l16.6 12.8l16 11.5l16.6 10.9l17.9 10.2l17.8 8.3l19.2 8.3l18.5 7l18.5 5.8l19.2 3.8l18.5 2.6l18.6 0.6l19.1-0.6l17.9-2.6l-1.3 0.6l7.7-1.9l5.7-1.8l7-2.6l8.3-3.2l7-3.2l7-3.2l5.7-3.2l5.8-3.8l6.4-3.9l4.4-3.8l5.2-5.1l5.7-5.8l4.5-5.1l3.2-4.4l3.8-6.5l2-3.1zm158.9-549.5l-10.8-16l-9.6-16l-11.5-16.6l-10.2-16l-10.2-14.7l-11.5-15.3l-11.5-14.7l-10.9-13.5l-12.1-12.1l-12.8-11.5l-11.5-9.6l-13.4-8.9l-12.8-7l-12.8-5.1l-14.7-3.2l-15.9-2.6l-3.9-0.6h-4.4l-7 0.6h-12.2l-6.3 1.3l-7.7 1.3l-7 1.2l-7 1.9l-5.1 1.3l-5.1 2.6l-5.1 1.9l-3.9 2.5l-3.2 1.9l-0.6 1.3h-0.6l-0.6 1.3l-1.9 3.8l-1.3 4.5l-1.9 9l-1.3 7v6.7l15.3 25.2l17.9 26.2l19.2 25.6l21.6 24.2l23.7 24.3l24.9 23.6l25.5 21.7l26.2 23l26.2 22.4l27.4 21.7l25.6 21.8l26.1 21l25.6 21l1.3 1.2v-126.9zm-1552.2-48.6l-0.7-3.8l-60.6 164h122.6zm1906.6-133.4c-5.1-4.5-13.4-7.7-23-10.2c-24.9-6.4-58.1-5.8-58.1-5.8v217.8c18 0 39.6-1.3 58.1-7c21.8-5.8 40.2-17.9 47.3-38.3c15.3-50.5 19.1-115.7-24.3-156.5zm781.5 100.2c-20.4-77.9-93.8-123.8-169.8-120.6q-11.6 0.4-23 2.5q-11.3 2-22.3 5.6q-11 3.5-21.5 8.5q-10.4 5.1-20 11.4c-118.8 77.9-109.3 252.9-83 371.6c14 63.9 66.4 134.2 130.9 146.3q4.8 1 9.6 1.7q4.9 0.7 9.8 1.1q4.8 0.4 9.7 0.5q4.9 0.1 9.8-0.1c49.8-2.5 104.8-24.9 128.4-62c67.6-105.3 68.2-250.9 41.4-366.5zm553-100.2c-5.2-4.5-13.4-7.7-23-9.6c-24.9-6.4-58.1-6.4-58.1-6.4v217.8c17.9 0 39.6-1.3 58.1-7c22.4-6.4 40.3-17.9 46.6-38.3c15.3-50.5 19.2-115.7-23.6-156.5z" fill="#ffffff"/><path fill-rule="evenodd" class="s0" d="m4671.4 863.9c-148.1 0-151.3-229.3 0-229.3v0.7c149.4 0.6 148.1 227.9 0 228.6zm0-200.5v-0.6c-114.3 0-112.3 173 0 173c111.8-0.7 113-171.8 0-172.4z" fill="#ffffff"/><path fill-rule="evenodd" class="s0" d="m4723.1 805.7h-24.3c-8.3-13.4-15.3-30-27.4-39.6q-2.2-1.6-4.6-2.9q-2.4-1.3-5-2.2q-2.6-0.9-5.3-1.4q-2.8-0.4-5.5-0.5v46.6h-21.1v-112.4c8.9 0 26.2-1.2 41.5-0.6c16.6 0.7 31.9 3.9 38.3 14.1c12.1 20.4 1.3 45.3-21 49.8c14 14 24.3 31.9 34.4 49.1zm-51.7-65.1c14.1-0.6 24.2-5.1 19.8-23.6c-1.3-1.9-10.2-3.2-19.8-3.8c-8.3-0.7-16.5-0.7-20.4-0.7v28.1c6.4 0 14 0.6 20.4 0z" fill="#ffffff"/></svg>