<svg xmlns="http://www.w3.org/2000/svg" xmlns:xlink="http://www.w3.org/1999/xlink" width="1393" height="1372" viewBox="0 0 1393 1372">
  <defs>
    <clipPath id="clip-Logo_adidas">
      <rect width="1393" height="1372"/>
    </clipPath>
  </defs>
  <g id="Logo_adidas" data-name="Logo adidas" clip-path="url(#clip-Logo_adidas)">
    <g id="ADIDAS-b-brand" transform="translate(-1330.7 539.9)">
      <g id="Grupo_15566" data-name="Grupo 15566">
        <path id="Trazado_52671" data-name="Trazado 52671" d="M2683,508.1c0-3.1-1.4-6-3.5-7a15.381,15.381,0,0,0-8.1-1.8H2657v32.8h4.2V516.9h7.4l9.5,15.2h4.9l-9.9-15.2c5.3,0,9.9-2.1,9.9-8.8Zm-15.5,5.7h-6.3V502.2h9.2c4.6,0,8.8.7,8.8,6C2679.2,514.8,2671.8,513.8,2667.5,513.8Z" fill="#fff"/>
        <path id="Trazado_52672" data-name="Trazado 52672" d="M2668.3,486.6h-.4a28.914,28.914,0,0,0-28.9,28.9,29.2,29.2,0,1,0,58.4,0,28.958,28.958,0,0,0-29.1-28.9Zm-.1,55a26.141,26.141,0,0,1-26-26c0-14.1,11.9-25.4,26-25.4a25.566,25.566,0,0,1,25.4,25.4C2693.6,530,2682,541.6,2668.2,541.6Zm-783.8,6h52.3V487.3h-52.3Zm0,255.8h52.3V564.1h-52.3Zm536-216.3a118.073,118.073,0,0,0-70.8-23.3c-66.9,0-121.1,54.1-121.1,120.6a121.055,121.055,0,0,0,121.1,121c26.6,0,51.3-8.4,70.8-23.4l.6,21.4h51.9V564.1h-52.6v23Zm-69.3,164.7h-.3a67.051,67.051,0,1,1,.3,0Zm261.8-94.6c-10.7-.7-54.5-2.9-54.5-28.6,0-17.2,28.9-21.7,42.2-21.7,25.3,0,41.2,14.2,44.2,34l52.6-.4c-1.3-46.3-41.8-78.1-95.4-77.8-64.6.4-97.4,33.4-97.4,75.3,0,23.3,13,37,28.2,49,13.6,11.3,46.5,17.2,63.6,19.1,30.5,3.2,51.6,8.1,51.6,30.8,0,14.3-20.5,26.6-49.3,26.6-15.9,0-44.2-10-47.1-37H2500c6.2,57.1,52.9,82.4,99,82.4,20.8,0,54.9-4.9,71.4-16.8,19.5-14.3,33.1-34.4,33.1-61.3,0-36.3-20.5-67.1-90.6-73.6ZM1529.6,587.1a118.073,118.073,0,0,0-70.8-23.3c-66.9,0-121.1,54.1-121.1,120.6a121.055,121.055,0,0,0,121.1,121c26.6,0,51.3-8.4,70.8-23.4l.6,21.4h51.9V564.1h-52.6v23Zm-69.3,164.7h-.3a67.051,67.051,0,1,1,.3,0Zm693.4-264.2v99.5a118.073,118.073,0,0,0-70.8-23.3c-66.9,0-121.1,54.1-121.1,120.6a121.055,121.055,0,0,0,121.1,121c26.6,0,51.3-8.4,70.8-23.4l.6,21.4h51.9V487.6Zm-69.2,264.2h-.3a67.051,67.051,0,1,1,.3,0ZM1797.7,487.6v99.5a118.073,118.073,0,0,0-70.8-23.3c-66.9,0-121.1,54.1-121.1,120.6a121.055,121.055,0,0,0,121.1,121c26.6,0,51.3-8.4,70.8-23.4l.6,21.4h51.9V487.6Zm-69.2,264.2h-.3a67.051,67.051,0,1,1,.3,0ZM2026.4,39.2H2199a729.472,729.472,0,0,0,6.3-95.2c0-182.4-67.6-348.8-178.9-475.9-111.3,127.1-179,293.6-179,475.9a729.472,729.472,0,0,0,6.3,95.2h172.7Zm-82.6,265.1a732.9,732.9,0,0,0,82.5,115.6,715.788,715.788,0,0,0,82.5-115.6h-165ZM1766.9-33c-112.1-129-262.7-205.3-420.3-226.9a671.157,671.157,0,0,0,67.6,299.1h407.4A674.366,674.366,0,0,0,1766.9-33ZM1645.1,304.3a682.144,682.144,0,0,0,286.8,109.1,677.442,677.442,0,0,0-8.1-109.1ZM2285.9-33a674.318,674.318,0,0,0-54.7,72.2h407.4a671.463,671.463,0,0,0,67.6-299.1C2548.6-238.3,2398-162,2285.9-33Zm-165,446.4a679.487,679.487,0,0,0,286.8-109.1H2129a677.456,677.456,0,0,0-8.1,109.1Zm-94.5-211H1526c15.4,16.7,31.6,32.5,48.6,47.6h903.6a661.362,661.362,0,0,0,48.6-47.6H2026.4Zm0-108.8H1443.9c11.4,18.7,23.7,36.9,36.8,54.4H2572.2c13.1-17.5,25.4-35.7,36.8-54.4H2026.4Z" fill="#fff"/>
      </g>
    </g>
  </g>
</svg>
