<svg xmlns="http://www.w3.org/2000/svg" width="53.185" height="26.5" viewBox="0 0 53.185 26.5"><defs><style>.a{fill:#f9f9f9;}</style></defs><path class="a" d="M64.1,35.583c-.174.027-.341.668-.678,1-.246.241-.553.226-.716.524-.062.111-.042.3-.112.483-.137.365-.621.4-.621.795,0,.429.4.511.754.816.274.245.3.414.632.533.283.1.7-.218,1.082-.105.311.093.609.16.679.479.062.294,0,.751-.381.7a4.13,4.13,0,0,0-1.356-.128c-.817.093-1.75.36-1.841,1.271a1.046,1.046,0,0,0,1.188.988c.421-.083.222-.579.451-.82.3-.309,2,1.077,3.583,1.077a2.066,2.066,0,0,0,1.653-.683c.046-.039.1-.124.173-.129a.6.6,0,0,1,.223.1c1.274,1.024,2.237,3.077,6.918,3.1a3.152,3.152,0,0,1,2.021.877,5.542,5.542,0,0,1,1.176,2.088A11.138,11.138,0,0,0,81.506,52.2c.069.069,1.118.884,1.2.945a.5.5,0,0,1,.064.3c-.031.776-.144,3.034,1.539,3.136.412.021.3-.268.3-.468a2.344,2.344,0,0,1,.135-1.186c.284-.554-.6-.809-.575-2.006.018-.892-.731-.74-1.112-1.42a1.834,1.834,0,0,1-.4-1.085,9.333,9.333,0,0,0-.908-4.931c-.258-.33-.471-.462-.235-.615a4.324,4.324,0,0,0,1.723-1.791c.747-1.756,1.419-3.359,2.345-4.065a6.947,6.947,0,0,1,.959-.643,6.3,6.3,0,0,0,1.57-.9,1.4,1.4,0,0,0,.33-1.684c-.473-.6-1.292-.125-1.654.089-2.582,1.532-2.963,4.236-3.857,5.788a4.166,4.166,0,0,1-2.911,2.226,5.178,5.178,0,0,1-2.451-.466,12.332,12.332,0,0,1-3.4-2.242c-.545-.421-4.78-4.577-8.21-4.747,0,0-.426-.852-.533-.867-.251-.032-.508.509-.692.572s-.464-.586-.639-.558M49,60.39a.611.611,0,0,1-.6-.6v-10.7H44.873V60.884a1.048,1.048,0,0,0,1.043,1.05H52.08a1.044,1.044,0,0,0,1.041-1.05V49.089H49.6l0,10.7a.611.611,0,0,1-.6.6M60.8,49.089H55.466a1.148,1.148,0,0,0-1.146,1.152V61.934h3.53V51.208a.6.6,0,0,1,1.2-.009V61.934h3.516V51.2a.589.589,0,0,1,.6-.58.6.6,0,0,1,.6.589V61.934h3.53V50.241a1.149,1.149,0,0,0-1.147-1.152ZM40.154,51.231a.6.6,0,0,0-.6-.611h-.6v6.5h.6a.6.6,0,0,0,.6-.6Zm2.366,7.475H38.958v3.228H35.433V49.089h7.11a1.138,1.138,0,0,1,1.133,1.157v7.3a1.154,1.154,0,0,1-1.156,1.157m36.864.356a1.324,1.324,0,1,0,.023,0Zm1.588,1.35a1.571,1.571,0,1,1-1.591-1.58,1.573,1.573,0,0,1,1.591,1.58" transform="translate(-35.433 -35.493)"/><path class="a" d="M596.7,273.167c.245,0,.374-.087.374-.261,0-.155-.125-.234-.363-.234h-.07v.5Zm.9,1.016h-.421l-.541-.72v.72H596.3v-1.821h.361c.491,0,.752.186.752.54a.529.529,0,0,1-.369.509l-.025.009Zm-6.94-4.208V264.06a.6.6,0,0,0-1.2.009v5.905Zm0,4.815v-3.225h-1.2v3.225h-3.523V263.1a1.148,1.148,0,0,1,1.146-1.152h5.952a1.149,1.149,0,0,1,1.147,1.152v11.693Z" transform="translate(-552.891 -248.349)"/></svg>