<svg xmlns="http://www.w3.org/2000/svg" width="791.429" height="320" fill="#fff" xmlns:v="https://vecta.io/nano"><path d="M771.149 27.657c-5.457 12.799 5.141 33.082-10.13 37.058l-474.417-1.59-50.336 1.046-7.124 10.893-59.377 225.253-8.224 3.736-80.139-1.405-7.527-15.631L5 13.137c20.533-2.691 44.454-4.248 65.303.142 21.731 67.089 31.611 138.492 50.543 207.956l2.484 2.015 5.86-6.623 51.098-200.363 5.719-4.793 538.804.871c15.435 4.815 47.667-11.002 46.338 15.315m.741 86.522c1.34 15.076-13.006 28.899-23.474 37.7-19.531-8.671-43.637-26.557-67.645-13.627-7.505 5.632-12.777 15.74-7.298 24.073 33.245 24.868 92.567 11.318 105.072 61.762 6.176 21.709 1.231 49.475-15.969 64.856-27.711 25.849-67.895 31.317-106.63 20.174-16.993-7.581-35.99-12.679-50.706-26.295 5.653-15.435 15.609-28.637 26.295-40.162 21.601 5.348 40.423 22.864 67.111 19.738 8.823-.142 19.923-6.242 24.28-15.675 3.148-37.58-44.846-23.06-66.926-33.757-22.461-5.381-40.206-24.542-44.628-46.022-4.346-22.461 1.874-43.996 19.019-58.44 40.151-27.461 103.308-23.126 141.498 5.675m-183.38-10.915c1.601 64.529 1.329 131.542-.501 195.723-20.794 5.359-44.203.719-66.229.675-17.788-29.639-28.681-57.983-49.083-87.851-2.582-1.1-3.747 2.342-5.555 3.017l-1.678 82.862c-13.888 7.603-33.517.697-49.628 3.747l-3.54-10.926c.654-60.76-1.732-127.12 3.181-186.66 17.995-3.78 38.299-3.878 58.495-3.083l5.849 4.019 45.249 81.348 6.285-1.209c-1.558-23.975 3.66-54.334 2.342-80.967 15.555-6.634 38.212-3.006 54.813-.697M312.374 208.969c-1.372-16.002-7.963-31.459-14.662-45.314-9.074 12.472-8.747 30.141-12.668 44.802 7.418 6.808 19.139 3.453 27.33.512m47.983-56.839l36.284 146.857c-15.501 5.697-35.456 1.405-53.092 1.667-8.703-12.189-3.224-35.522-23.267-38.092-18.638 1.133-42.787-6.154-55.423 8.616l-8.692 30.097c-16.917 2.168-37.264 2.298-52.776-1.754 17.004-66.479 36.6-131.836 57.013-197.182 25.173-4.945 57.645-3.094 83.733-.033l16.219 49.824zm419.801-71.871c-.403-.185-.98-.283-1.743-.283h-.697v3.279h1.133c.708.022 1.242-.131 1.623-.37.392-.316.588-.773.588-1.383.011-.621-.316-1.046-.904-1.242m-5.316 8.921V78.102h3.104 2.266c.915.065 1.645.251 2.211.599.991.512 1.471 1.416 1.471 2.614 0 .948-.24 1.623-.762 2.004-.512.425-1.144.675-1.906.73.708.153 1.22.392 1.579.664.654.556 1.024 1.405 1.013 2.527l.011.969c-.011.109.033.218-.011.349 0 .087.044.218.044.305l.076.359-2.745-.054c-.087-.316-.153-.85-.174-1.536-.011-.643-.076-1.078-.196-1.34-.152-.403-.436-.686-.806-.839a4.66 4.66 0 0 0-1.035-.163h-.632l-.632-.022v3.921l-2.876-.011zm-1.416-11.307a7.84 7.84 0 0 0-2.396 5.784c0 2.266.817 4.248 2.44 5.882 1.623 1.612 3.54 2.407 5.795 2.375 2.277.044 4.248-.806 5.882-2.418 1.569-1.623 2.386-3.595 2.386-5.839a7.85 7.85 0 0 0-2.407-5.773c-1.667-1.688-3.584-2.516-5.86-2.516-2.255 0-4.216.828-5.839 2.505m12.864 12.952c-1.972 1.874-4.303 2.843-7.026 2.821-2.832-.033-5.207-.98-7.146-2.897-1.895-1.928-2.832-4.335-2.876-7.135 0-2.919 1.057-5.359 3.148-7.276 1.961-1.852 4.237-2.734 6.895-2.767 2.745 0 5.152.98 7.048 2.93 1.983 2.004 2.952 4.346 2.952 7.113.011 2.854-.969 5.283-2.996 7.211"/></svg>